<svg xmlns="http://www.w3.org/2000/svg" width="1608" height="2922" viewBox="0 0 1608 2922" version="1.1">
	<path d="M 806.914 0.966 C 805.492 1.391, 791.767 8.709, 776.414 17.228 C 725.303 45.587, 670.721 75.635, 651.500 85.993 C 641.050 91.625, 623.725 100.982, 613 106.788 C 602.275 112.593, 590.899 118.674, 587.720 120.302 C 581.009 123.737, 578 127.097, 578 131.153 C 578 132.739, 579.552 138.866, 581.449 144.768 C 583.347 150.671, 591.184 177.325, 598.865 204 C 606.547 230.675, 619.357 274.550, 627.333 301.500 C 640.604 346.341, 653.649 391.064, 670.601 449.834 C 674.145 462.118, 677.763 473.818, 678.641 475.834 C 679.520 477.850, 680.334 480.673, 680.450 482.106 L 680.661 484.712 669.581 485.354 C 657.289 486.067, 656.597 486.162, 639.344 489.499 C 593.192 498.425, 518.981 530.889, 457 569.266 C 400.025 604.543, 354.843 640.972, 303.991 692.633 C 236.461 761.238, 197.649 810.132, 158.039 876.500 C 115.193 948.288, 72.140 1044.205, 44.072 1130.404 C 24.173 1191.514, 10.048 1259.531, 5.532 1316 C 2.389 1355.286, 1.974 1363.142, 1.987 1383.020 C 2.003 1407.579, 2.570 1410.186, 13.119 1434.202 C 28.054 1468.201, 42.154 1507.972, 54.528 1551 C 71.675 1610.626, 87.727 1681.275, 96.449 1735.500 C 97.334 1741, 98.500 1747.525, 99.041 1750 C 99.581 1752.475, 100.454 1757.650, 100.981 1761.500 C 101.508 1765.350, 102.612 1772.775, 103.436 1778 C 109.099 1813.934, 112.548 1840.410, 113.859 1858 C 114.842 1871.195, 114.699 1925.513, 113.616 1950 C 113.264 1957.975, 112.778 1972.150, 112.537 1981.500 C 111.803 2009.911, 111.008 2029.639, 109.857 2048 C 109.253 2057.625, 108.636 2067.750, 108.487 2070.500 C 107.982 2079.761, 105.966 2102.441, 104.977 2110 C 104.437 2114.125, 103.566 2120.875, 103.041 2125 C 101.082 2140.402, 99.872 2146.631, 95.975 2161.374 C 93.777 2169.693, 87.976 2192.475, 83.086 2212 C 69.760 2265.205, 64.203 2283.514, 48.837 2324.854 C 35.277 2361.334, 25.056 2383.832, 11.559 2406.903 C 7.891 2413.174, 4.637 2419.563, 4.330 2421.100 C 3.624 2424.632, 6.659 2429.744, 11.766 2433.623 C 13.819 2435.183, 30.388 2448.844, 48.584 2463.980 C 66.781 2479.116, 95.328 2502.750, 112.023 2516.500 C 128.719 2530.250, 152.081 2549.847, 163.939 2560.049 C 216.256 2605.059, 273.906 2653.413, 360 2724.496 C 383.925 2744.250, 424.859 2778.207, 450.965 2799.956 C 477.071 2821.705, 501.146 2841.720, 504.465 2844.433 C 516.016 2853.874, 547.595 2880.758, 562 2893.415 C 577.525 2907.055, 593.937 2920, 595.706 2920 C 596.301 2920, 596.812 2918.988, 596.841 2917.750 C 596.870 2916.512, 597.317 2906.275, 597.834 2895 C 598.465 2881.250, 598.435 2872.360, 597.743 2868 C 597.175 2864.425, 596.872 2860.150, 597.068 2858.500 C 597.265 2856.850, 597.409 2848.300, 597.389 2839.500 C 597.369 2830.700, 597.353 2821.925, 597.354 2820 C 597.360 2804.476, 596.973 2759.994, 596.815 2758 C 596.705 2756.625, 596.798 2706, 597.021 2645.500 C 597.244 2585, 597.701 2543.150, 598.036 2552.500 C 598.577 2567.614, 598.676 2565.895, 598.927 2537 C 599.082 2519.125, 599.240 2501.125, 599.277 2497 C 599.313 2492.875, 599.256 2465.650, 599.150 2436.500 C 599.043 2407.350, 598.969 2374.575, 598.986 2363.668 C 599.003 2352.760, 598.747 2343.400, 598.418 2342.868 C 598.089 2342.335, 598.173 2299.735, 598.604 2248.200 C 599.035 2196.665, 599.722 2155.850, 600.132 2157.500 C 600.542 2159.150, 600.648 2156.450, 600.367 2151.500 C 600.087 2146.550, 599.945 2140.025, 600.052 2137 C 600.159 2133.975, 600.239 2127.563, 600.229 2122.750 C 600.202 2108.554, 600.218 2104.546, 600.345 2093.750 C 600.412 2088.113, 600.410 2078.775, 600.341 2073 C 600.273 2067.225, 600.229 2058.113, 600.245 2052.750 C 600.260 2047.388, 600.271 2041.200, 600.268 2039 C 600.266 2036.800, 600.290 2031.287, 600.322 2026.750 C 600.354 2022.213, 600.282 2017.150, 600.161 2015.500 C 600.040 2013.850, 600.441 2001.859, 601.052 1988.853 C 601.983 1969.032, 601.933 1964.305, 600.743 1959.633 C 599.962 1956.567, 599.716 1953.928, 600.196 1953.768 C 601.510 1953.330, 599.514 1945.459, 598.162 1945.750 C 597.523 1945.887, 597 1945.400, 597 1944.666 C 597 1942.906, 572.836 1927.057, 540 1907.281 C 513.121 1891.092, 452.531 1853.478, 334 1779.397 C 297.975 1756.881, 264.066 1736.010, 258.648 1733.016 C 242.199 1723.928, 237.639 1718.420, 236.435 1706.188 C 236.079 1702.573, 231.506 1669.756, 228.467 1649 C 226.933 1638.530, 224.766 1622.773, 223.033 1609.500 C 222.226 1603.320, 219.778 1587.646, 213.035 1545.500 C 211.288 1534.579, 208.877 1517.717, 207.602 1507.500 C 206.705 1500.313, 203.952 1482.656, 203.361 1480.301 C 202.923 1478.559, 203.207 1478, 204.526 1478 C 207.343 1478, 223.530 1486.052, 238.033 1494.668 C 245.440 1499.068, 264.100 1509.557, 279.500 1517.976 C 294.900 1526.395, 326.175 1543.630, 349 1556.277 C 371.825 1568.923, 428.300 1599.973, 474.500 1625.275 C 520.700 1650.578, 577.935 1682.001, 601.689 1695.103 C 625.444 1708.205, 650.728 1721.856, 657.877 1725.439 C 665.027 1729.021, 672.479 1733.359, 674.438 1735.080 L 678 1738.207 678 1754.045 C 678 1763.524, 678.401 1770.130, 679 1770.500 C 680.297 1771.301, 680.297 1775.699, 679 1776.500 C 677.938 1777.156, 677.581 1792.247, 678.603 1793.270 C 679.267 1793.933, 679.756 1850.270, 680.450 2006 C 680.701 2062.375, 680.927 2113.111, 680.953 2118.747 L 681 2128.994 684.573 2132.949 C 686.905 2135.530, 692.027 2138.878, 699.323 2142.588 C 713.193 2149.643, 773.948 2184.614, 783.658 2191.132 C 793.933 2198.029, 802.202 2202, 806.291 2202 C 811.456 2202, 817.125 2199.238, 830.027 2190.432 C 840.234 2183.466, 892.486 2151.742, 915.502 2138.537 C 922.974 2134.250, 926.351 2131.333, 932.300 2124.026 C 933.115 2123.026, 933.453 2118.368, 933.355 2109.526 C 933.276 2102.362, 933.225 2092, 933.244 2086.500 C 933.262 2081, 933.178 2074.925, 933.056 2073 C 932.667 2066.818, 933.060 1992.694, 933.688 1954 C 934.023 1933.375, 934.290 1914.250, 934.283 1911.500 C 934.275 1908.750, 934.258 1903.350, 934.245 1899.500 C 934.231 1895.650, 934.232 1887.662, 934.247 1881.750 C 934.262 1875.838, 934.272 1868.525, 934.270 1865.500 C 934.268 1862.475, 934.318 1855.838, 934.382 1850.750 C 934.445 1845.662, 934.444 1837, 934.380 1831.500 C 934.237 1819.238, 934.616 1746.355, 934.839 1743.283 C 935.135 1739.210, 941.775 1734.126, 956.303 1726.849 C 964.112 1722.938, 981.378 1713.511, 994.674 1705.899 C 1007.969 1698.288, 1024.619 1689.047, 1031.674 1685.364 C 1038.728 1681.681, 1044.669 1678.535, 1044.876 1678.374 C 1045.588 1677.819, 1032.803 1660.681, 1017.077 1641.110 C 1008.410 1630.325, 994.207 1611.825, 985.514 1600 C 963.412 1569.934, 956.501 1561.488, 941.031 1545.633 C 907.533 1511.302, 850.245 1469.633, 796.672 1440.635 C 772.755 1427.689, 757.915 1417.407, 760.680 1415.698 C 762.094 1414.824, 780.261 1421.466, 792.165 1427.210 C 798.399 1430.218, 814.290 1439.099, 827.478 1446.945 C 850.670 1460.745, 872.753 1472.580, 873.644 1471.689 C 874.874 1470.459, 853.287 1446.056, 816.423 1407 C 781.149 1369.630, 756.969 1346.313, 706.500 1301.003 C 692.750 1288.658, 672.039 1269.770, 660.475 1259.029 C 635.029 1235.393, 624.143 1225.945, 600 1206.545 C 571.398 1183.561, 555.028 1169, 557.790 1169 C 561.573 1169, 583.619 1179.146, 597 1187.046 C 600.575 1189.156, 605.530 1191.386, 608.012 1192 C 611.692 1192.911, 612.941 1193.844, 614.792 1197.059 C 617.503 1201.770, 623.946 1207.022, 635.771 1214.160 C 659.284 1228.353, 696.230 1255.634, 755.057 1302.239 C 841.995 1371.115, 860.045 1386.310, 904.500 1428.043 C 939.364 1460.772, 997.731 1521.080, 1022.534 1550 C 1039.807 1570.142, 1057.974 1593.194, 1091.206 1637.140 C 1096.994 1644.794, 1098.479 1646, 1102.115 1646 C 1104.373 1646, 1112.702 1641.947, 1118.500 1638.026 C 1120.700 1636.538, 1133.075 1629.465, 1146 1622.308 C 1158.925 1615.150, 1184.350 1600.962, 1202.500 1590.777 C 1220.650 1580.593, 1257.775 1560.005, 1285 1545.025 C 1312.225 1530.046, 1342.375 1513.167, 1352 1507.518 C 1397.087 1481.054, 1406.249 1476.886, 1404.562 1483.610 C 1403.106 1489.409, 1399.735 1511.207, 1397.464 1529.500 C 1396.099 1540.500, 1394.065 1555.800, 1392.944 1563.500 C 1391.823 1571.200, 1390.667 1579.300, 1390.373 1581.500 C 1389.739 1586.258, 1379.935 1651.736, 1376.972 1671 C 1375.831 1678.425, 1373.987 1691.222, 1372.877 1699.438 C 1370.833 1714.551, 1369.761 1718.096, 1366.282 1721.245 C 1364.414 1722.935, 1351.307 1731.180, 1322.500 1748.785 C 1314.800 1753.490, 1294.104 1766.558, 1276.508 1777.825 C 1258.913 1789.091, 1236.638 1803.023, 1227.008 1808.784 C 1217.379 1814.545, 1209.112 1819.611, 1208.638 1820.041 C 1206.938 1821.585, 1226.829 1860.485, 1266.668 1933.528 C 1278.676 1955.543, 1290.075 1977.015, 1292 1981.244 C 1298.476 1995.467, 1298.539 1991.496, 1292.408 1955.478 C 1289.883 1940.640, 1287.569 1926.475, 1287.267 1924 L 1286.717 1919.500 1288.899 1921.441 C 1294.014 1925.993, 1298.566 1939.599, 1319.869 2014 C 1324.830 2031.325, 1329.326 2047.300, 1329.859 2049.500 C 1330.393 2051.700, 1331.806 2056.875, 1332.999 2061 C 1337.021 2074.910, 1380.758 2250.331, 1384.924 2269.262 C 1387.194 2279.580, 1389.714 2292.180, 1390.523 2297.262 C 1391.332 2302.343, 1392.413 2308.535, 1392.924 2311.022 C 1393.436 2313.509, 1394.082 2317.334, 1394.359 2319.522 C 1394.637 2321.710, 1395.327 2326.425, 1395.892 2330 C 1396.457 2333.575, 1397.126 2338.075, 1397.377 2340 C 1397.629 2341.925, 1398.301 2346.425, 1398.872 2350 C 1399.443 2353.575, 1400.188 2361.645, 1400.529 2367.934 C 1401.056 2377.673, 1400.940 2379.195, 1399.746 2378.204 C 1397.183 2376.077, 1393.118 2366.427, 1388.953 2352.583 C 1386.688 2345.055, 1382.814 2333.406, 1380.345 2326.698 C 1377.876 2319.989, 1368.738 2293.125, 1360.039 2267 C 1342.948 2215.676, 1332.943 2188.146, 1319.653 2155.879 C 1297.059 2101.021, 1265.254 2035.962, 1231.471 1975.500 C 1222.068 1958.670, 1205.225 1928.425, 1169.787 1864.730 C 1166.492 1858.807, 1162.899 1853.481, 1161.804 1852.895 C 1158.673 1851.220, 1155.459 1852.573, 1141.524 1861.432 C 1111.114 1880.768, 1027.905 1932.010, 1021.090 1935.598 C 1017.015 1937.744, 1011.390 1941.589, 1008.590 1944.141 L 1003.500 1948.783 1003.539 2063.641 C 1003.575 2171.810, 1004.242 2288.413, 1005.684 2439 C 1006.029 2475.025, 1006.354 2531.613, 1006.406 2564.750 C 1006.458 2597.888, 1006.837 2625, 1007.250 2625 C 1007.663 2625, 1008 2625.900, 1008 2627 C 1008 2628.100, 1007.550 2629, 1007 2629 C 1006.348 2629, 1006.035 2643.517, 1006.100 2670.750 C 1006.155 2693.713, 1006.560 2711.375, 1007 2710 C 1007.552 2708.277, 1007.801 2709.830, 1007.801 2715 C 1007.801 2720.170, 1007.552 2721.723, 1007 2720 C 1006.448 2718.277, 1006.199 2719.830, 1006.199 2725 C 1006.199 2729.686, 1006.468 2731.562, 1006.917 2730 C 1008.346 2725.020, 1008.937 2762.904, 1008.638 2840.211 C 1008.471 2883.502, 1008.621 2919.387, 1008.972 2919.955 C 1010.095 2921.772, 1018.789 2915.276, 1050.612 2888.846 C 1067.600 2874.737, 1097.025 2850.417, 1116 2834.802 C 1134.975 2819.187, 1163.550 2795.620, 1179.500 2782.430 C 1195.450 2769.241, 1218.175 2750.604, 1230 2741.016 C 1264.629 2712.937, 1287.001 2694.019, 1294.500 2686.475 C 1306.576 2674.327, 1310.358 2664.311, 1310.353 2644.500 C 1310.348 2626.404, 1306.797 2612.096, 1283.674 2537 C 1276.815 2514.725, 1266.404 2480.075, 1260.538 2460 C 1248.659 2419.351, 1245.512 2408.945, 1236.877 2381.767 C 1230.370 2361.286, 1173.798 2202.562, 1161.622 2170.624 C 1157.455 2159.692, 1153.147 2147.542, 1152.049 2143.624 L 1150.054 2136.500 1152.070 2139 C 1153.178 2140.375, 1162.553 2158.375, 1172.902 2179 C 1202.529 2238.046, 1287.365 2405.600, 1292.394 2415 C 1300.909 2430.915, 1298.740 2429.579, 1279.861 2407.279 C 1272.774 2398.907, 1266.079 2391.578, 1264.984 2390.991 C 1263.086 2389.975, 1263.102 2390.173, 1265.340 2395.213 C 1266.631 2398.121, 1271.651 2407.475, 1276.495 2416 C 1291.825 2442.980, 1295.568 2450.190, 1309.555 2479.685 C 1338.534 2540.792, 1348.520 2568.245, 1358.046 2613 C 1359.861 2621.525, 1361.688 2628.898, 1362.107 2629.384 C 1363.233 2630.692, 1370.441 2626.106, 1379.500 2618.315 C 1389.495 2609.720, 1436.753 2570.638, 1495.500 2522.385 C 1520.250 2502.056, 1550.850 2476.877, 1563.500 2466.432 C 1576.150 2455.988, 1590.325 2444.365, 1595 2440.605 C 1604.678 2432.820, 1606.984 2429.864, 1606.993 2425.236 C 1606.998 2423.050, 1601.746 2411.155, 1591.099 2389.236 C 1569.084 2343.915, 1561.009 2323.223, 1545.540 2272.500 C 1536.326 2242.286, 1528.127 2210.027, 1520.118 2172.483 C 1519.064 2167.543, 1515.721 2152.700, 1512.690 2139.500 C 1505.677 2108.959, 1500.829 2083.026, 1499.510 2069 C 1499.278 2066.525, 1498.582 2059.775, 1497.964 2054 C 1497.346 2048.225, 1496.610 2030.225, 1496.328 2014 C 1496.046 1997.775, 1495.616 1979.100, 1495.371 1972.500 C 1495.126 1965.900, 1494.806 1950.825, 1494.658 1939 L 1494.390 1917.500 1494.980 1935.500 L 1495.570 1953.500 1495.785 1935.493 C 1495.903 1925.590, 1495.642 1916.140, 1495.204 1914.493 C 1494.767 1912.847, 1494.756 1905.650, 1495.180 1898.500 C 1495.604 1891.350, 1496.161 1881.900, 1496.418 1877.500 C 1497.494 1859.054, 1498.142 1849.973, 1499.022 1841 C 1499.534 1835.775, 1500.175 1829.025, 1500.444 1826 C 1501.459 1814.623, 1503.411 1797.360, 1508.587 1754 C 1509.408 1747.125, 1510.503 1737.225, 1511.021 1732 C 1511.539 1726.775, 1512.209 1720.025, 1512.509 1717 C 1517.483 1666.929, 1562.976 1513.957, 1592.865 1446.800 C 1607.006 1415.026, 1607.396 1412.921, 1606.681 1372.299 C 1606.373 1354.810, 1605.913 1339.150, 1605.659 1337.500 C 1605.405 1335.850, 1604.898 1330.225, 1604.532 1325 C 1603.639 1312.242, 1599.383 1278.138, 1596.965 1264.354 C 1594.823 1252.149, 1588.764 1221.147, 1587.124 1214 C 1586.555 1211.525, 1585.367 1206.350, 1584.483 1202.500 C 1553.862 1069.154, 1503.820 951.837, 1430.982 842.639 C 1394.519 787.974, 1357.683 742.353, 1313.500 697.139 C 1283.434 666.370, 1264.057 649.751, 1217.500 614.797 C 1169.206 578.539, 1131.624 554.778, 1088.500 533.234 C 1040.416 509.214, 984.978 489.188, 949.500 483.024 L 939.500 481.287 939.777 477.066 C 940.203 470.563, 947.136 444.840, 955.021 420.500 C 958.940 408.400, 968.888 374.425, 977.126 345 C 992.768 289.127, 1000.145 263.662, 1010.148 231 C 1013.432 220.275, 1019.711 198.900, 1024.101 183.500 C 1028.490 168.100, 1033.393 151.818, 1034.997 147.318 C 1036.601 142.818, 1038.206 136.926, 1038.564 134.225 C 1039.161 129.729, 1038.960 129.024, 1036.178 125.855 C 1034.459 123.898, 1029.528 120.626, 1024.820 118.321 C 1020.244 116.080, 999.400 104.673, 978.500 92.972 C 957.600 81.271, 919.350 59.915, 893.500 45.514 C 867.650 31.113, 841.325 16.390, 835 12.796 C 814.449 1.118, 811.108 -0.289, 806.914 0.966 M 529.360 812.460 C 528.214 813.263, 523.609 815.259, 519.127 816.894 C 508.191 820.885, 500.090 825.971, 491.172 834.441 C 478.298 846.671, 470.538 859.713, 465.812 877.067 C 463.819 884.384, 463.518 887.816, 463.538 903 C 463.557 918.004, 463.885 921.712, 465.836 929 C 475.580 965.390, 503.480 989.863, 541.095 995.013 C 545.378 995.599, 552.138 997.186, 556.117 998.540 C 565.015 1001.566, 565.769 1001.573, 560.040 998.577 L 555.580 996.245 563.040 995.491 C 567.143 995.077, 571.625 994.625, 573 994.488 C 574.375 994.351, 576.175 993.991, 577 993.688 C 577.825 993.385, 581.200 992.389, 584.500 991.475 C 609.762 984.478, 631.744 965.810, 642.940 941.844 C 647.775 931.492, 649.904 923.385, 650.874 911.621 C 652.337 893.889, 649.725 877.854, 643.016 863.381 C 630.944 837.339, 610.060 820.410, 581.237 813.304 C 573.727 811.453, 546.914 810.871, 536.638 812.336 C 532.485 812.928, 530.971 812.855, 531.447 812.086 C 532.348 810.628, 531.848 810.718, 529.360 812.460 M 1205.250 817.662 L 1189 823.167 1189 828.564 C 1189 833.649, 1189.159 833.995, 1191.750 834.526 C 1201.659 836.561, 1206.809 839.934, 1205.756 843.702 C 1204.735 847.359, 1163.851 951.439, 1161.403 956.614 C 1155.741 968.582, 1147.200 976.914, 1138.294 979.156 L 1134 980.237 1134 986.619 L 1134 993 1165.500 993 L 1197 993 1197 986.588 L 1197 980.176 1192.750 979.470 C 1186.681 978.461, 1183.345 976.481, 1180.540 972.222 C 1175.533 964.622, 1176.120 957.223, 1183.197 938.734 L 1187.318 927.968 1214.311 928.234 L 1241.304 928.500 1249.128 948.500 C 1253.431 959.500, 1256.962 969.952, 1256.976 971.727 C 1257.007 975.942, 1254.541 977.471, 1245.250 978.993 L 1238 980.181 1238 986.590 L 1238 993 1277.500 993 L 1317 993 1317 986.706 L 1317 980.412 1311.266 978.646 C 1303.436 976.235, 1299.512 972.957, 1295.909 965.820 C 1294.229 962.492, 1280.017 927.084, 1264.327 887.135 C 1248.636 847.186, 1235.571 813.938, 1235.292 813.250 C 1234.954 812.414, 1232.584 812.026, 1228.143 812.079 C 1222.860 812.142, 1218.173 813.285, 1205.250 817.662 M 291.002 820.744 L 291.004 827.500 299.252 827.500 C 309.553 827.500, 313.677 829.094, 315.873 833.922 C 317.310 837.081, 317.533 844.796, 317.786 899.829 C 318.080 963.900, 317.708 971.736, 314.206 975.239 C 312.492 976.953, 306.713 978.384, 296.750 979.561 L 292 980.123 292 986.561 L 292 993 338.500 993 L 385 993 385 986.697 L 385 980.394 373.869 979.295 C 362.071 978.129, 358.747 976.733, 356.265 971.904 C 355.363 970.149, 355.026 961.062, 355.015 938.250 L 355 907 367.250 907.020 C 381.788 907.043, 392.284 908.397, 396.351 910.774 C 400.402 913.141, 403.053 918.719, 404.326 927.555 L 405.398 935 412.699 935 L 420 935 420 899.500 L 420 864 412.500 864 L 405 864 405 866.951 C 405 878.005, 399.938 886.746, 391.181 890.812 C 385.986 893.224, 384.189 893.482, 370.182 893.833 L 354.865 894.217 355.182 864.187 L 355.500 834.158 357.884 831.622 C 361.214 828.079, 369.195 826.598, 381 827.331 C 392.143 828.023, 398.702 829.821, 408.992 835.001 C 418.316 839.696, 427.157 846.157, 435.033 854.033 L 441.083 860.083 448.350 859.791 L 455.618 859.500 447.047 837 L 438.476 814.500 364.738 814.244 L 291 813.987 291.002 820.744 M 662 820.310 L 662 826.725 670.695 827.430 C 680.932 828.261, 685.173 829.808, 687.672 833.622 C 689.397 836.254, 689.500 840.207, 689.500 903.632 C 689.500 970.290, 689.482 970.877, 687.406 973.677 C 684.935 977.009, 680.231 978.861, 674 978.955 C 671.525 978.992, 667.813 979.301, 665.750 979.642 L 662 980.262 662 986.631 L 662 993 707.500 993 L 753 993 753 985.893 C 753 979.903, 752.758 978.879, 751.459 979.377 C 749.235 980.231, 735.073 978.089, 731.821 976.407 C 726.716 973.768, 726.525 972.610, 726.169 942.250 L 725.837 914 732.441 914 C 738.820 914, 739.202 914.145, 743.658 918.250 C 746.196 920.587, 756.392 932.850, 766.317 945.500 C 776.242 958.150, 788.219 972.350, 792.931 977.055 C 806.399 990.500, 813.251 993, 836.636 993 L 850 993 850 986.500 C 850 982.787, 849.567 980, 848.989 980 C 848.433 980, 845.921 979.033, 843.407 977.851 C 835.236 974.011, 832.206 970.784, 788.252 919.128 L 781.003 910.609 788.444 907.897 C 824.374 894.797, 835.433 856.491, 810.500 831.499 C 806.446 827.435, 802.010 824.273, 796.823 821.748 C 782.103 814.583, 783.021 814.672, 719.250 814.262 L 662 813.895 662 820.310 M 860.950 819.750 C 860.294 822.913, 858.091 833.375, 856.054 843 L 852.351 860.500 858.425 860.818 L 864.500 861.135 868.954 855.818 C 878.311 844.647, 886.861 836.960, 893.233 833.989 C 900.250 830.718, 908.667 828.472, 917.250 827.580 L 923 826.983 922.985 898.241 C 922.974 952.807, 922.681 970.063, 921.735 971.904 C 919.366 976.514, 915.923 978.068, 905.930 979.034 C 900.743 979.535, 896.388 979.958, 896.250 979.973 C 896.112 979.988, 896 982.925, 896 986.500 L 896 993 942 993 L 988 993 988 986.500 C 988 982.925, 987.663 979.996, 987.250 979.992 C 982.965 979.945, 968.480 977.720, 966.456 976.798 C 960.335 974.009, 960.527 976.423, 960.224 898.162 L 959.948 826.825 967.724 827.475 C 980.271 828.523, 986.103 829.965, 992.812 833.676 C 1000.493 837.924, 1008.271 845.526, 1013.997 854.379 L 1018.278 861 1025.488 861 L 1032.698 861 1028.872 843.750 C 1026.768 834.263, 1024.508 823.688, 1023.850 820.250 L 1022.654 814 942.398 814 L 862.142 814 860.950 819.750 M 1040 820.340 L 1040 826.679 1049.603 827.860 C 1060.546 829.204, 1062.616 830.043, 1064.291 833.811 C 1065.638 836.840, 1066.671 951.710, 1065.470 964.929 C 1064.904 971.167, 1064.363 972.791, 1062.096 975.058 C 1059.397 977.757, 1057.665 978.230, 1045.750 979.521 L 1040 980.144 1040 986.572 L 1040 993 1084 993 L 1128 993 1128 986.500 C 1128 982.925, 1127.888 979.997, 1127.750 979.992 C 1123.372 979.860, 1110.671 977.807, 1108.717 976.917 C 1102.915 974.273, 1102.897 974.033, 1103.213 901.455 C 1103.477 840.667, 1103.639 835.199, 1105.241 832.755 C 1107.236 829.710, 1111.468 828.282, 1121.250 827.354 L 1128 826.713 1128 820.356 L 1128 814 1084 814 L 1040 814 1040 820.340 M 531.500 819.680 C 522.407 821.717, 520.131 823.183, 510.176 833.416 C 487.732 856.485, 480.152 875.402, 481.294 905.500 C 482.060 925.684, 485.858 938.517, 495.107 952.175 C 504.031 965.352, 514.078 974.178, 530.501 983.268 C 538.944 987.940, 541.464 988.865, 546.691 989.210 C 553.407 989.654, 554.403 988.640, 548.222 987.652 C 535.563 985.627, 518.936 971.329, 510.834 955.500 C 502.400 939.023, 498.536 924.012, 497.064 902 C 494.327 861.087, 507.281 831.888, 532.831 821.379 C 538.066 819.226, 537.388 818.361, 531.500 819.680 M 1211.320 822.329 C 1206.271 824.073, 1201.919 825.725, 1201.649 826 C 1201.379 826.275, 1203.710 826.369, 1206.829 826.209 C 1213.894 825.847, 1218.391 827.977, 1222.227 833.500 C 1224.729 837.102, 1268.212 945.653, 1273.021 960.301 C 1276.878 972.050, 1275.007 980.779, 1267.879 984.290 C 1264.630 985.891, 1265.402 985.954, 1288 985.930 L 1311.500 985.906 1306.692 984.028 C 1300.118 981.459, 1295.853 978.004, 1292.168 972.262 C 1290.456 969.594, 1279.347 942.682, 1267.481 912.456 C 1255.615 882.230, 1242.503 848.837, 1238.342 838.250 L 1230.778 819 1225.639 819.079 C 1222.651 819.124, 1216.657 820.485, 1211.320 822.329 M 307.750 820.662 C 308.438 820.940, 309.563 820.940, 310.250 820.662 C 310.938 820.385, 310.375 820.158, 309 820.158 C 307.625 820.158, 307.063 820.385, 307.750 820.662 M 325 820.401 C 325 820.622, 326.597 821.745, 328.549 822.896 C 335.759 827.151, 335.500 824.145, 335.500 903.500 C 335.500 972.948, 335.456 974.577, 333.477 978 C 332.279 980.073, 329.644 982.418, 327.015 983.750 L 322.576 986 346.038 985.915 C 367.429 985.837, 369.028 985.716, 364.150 984.536 C 354.849 982.286, 349.592 976.634, 348.490 967.700 C 347.329 958.288, 348.505 836.859, 349.794 833.075 C 351.554 827.908, 355.786 824.118, 361.722 822.392 C 364.625 821.549, 367 820.665, 367 820.429 C 367 820.193, 357.550 820, 346 820 C 334.450 820, 325 820.181, 325 820.401 M 426.718 820.750 C 426.245 821.638, 444.992 853.342, 445.619 852.714 C 445.855 852.478, 443.282 845.021, 439.901 836.143 L 433.753 820 430.436 820 C 428.611 820, 426.938 820.337, 426.718 820.750 M 584.233 822.031 C 603.410 829.819, 618.009 848.813, 624.507 874.430 C 628.288 889.334, 629.590 905.468, 628.164 919.750 C 626.696 934.452, 624.939 941.240, 619.819 952 C 616.324 959.344, 614.333 961.923, 605.180 970.962 L 594.587 981.424 600.543 978.086 C 609.679 972.967, 615.060 968.728, 622.597 960.716 C 630.062 952.781, 634.843 945.441, 638.592 936.158 C 643.493 924.026, 644.482 918.371, 644.482 902.500 C 644.482 883.293, 641.488 871.676, 632.855 857.392 C 622.849 840.838, 607.322 828.476, 588.325 821.940 C 581.079 819.447, 578.036 819.515, 584.233 822.031 M 673.750 820.662 C 674.438 820.940, 675.563 820.940, 676.250 820.662 C 676.938 820.385, 676.375 820.158, 675 820.158 C 673.625 820.158, 673.063 820.385, 673.750 820.662 M 695 820.487 C 695 820.754, 696.508 821.603, 698.351 822.373 C 703.943 824.710, 706.037 828.775, 707.052 839.266 C 708.226 851.399, 708.218 968.355, 707.043 973.423 C 705.757 978.966, 702.982 982.235, 697.897 984.196 C 693.582 985.860, 693.966 985.890, 718.500 985.829 C 736.813 985.783, 742.052 985.526, 738.086 984.868 C 730.969 983.687, 725.089 980.330, 722.551 976 C 720.548 972.581, 720.494 970.980, 720.222 907.044 C 720.025 860.648, 720.278 839.977, 721.092 836.056 C 722.508 829.238, 727.479 823.756, 733.786 822.058 C 736.104 821.434, 738 820.715, 738 820.461 C 738 820.208, 728.325 820, 716.500 820 C 704.675 820, 695 820.219, 695 820.487 M 891.806 825.264 C 877.830 832.813, 874.202 835.673, 866.675 845.081 C 859.844 853.619, 859.075 857.830, 865.803 849.855 C 873.605 840.606, 879.496 834.865, 884.784 831.356 C 891.024 827.213, 901.474 823.389, 909.240 822.405 C 918.054 821.288, 918.189 820.062, 909.500 820.044 C 901.740 820.029, 901.209 820.185, 891.806 825.264 M 936.395 823.250 C 939.789 826.209, 940.213 827.160, 941.131 833.880 C 942.664 845.094, 941.730 970.328, 940.075 975.442 C 938.652 979.841, 934.089 984.645, 930.714 985.299 C 929.496 985.535, 939.525 985.736, 953 985.747 C 970.781 985.761, 976.015 985.520, 972.086 984.868 C 964.545 983.616, 959.097 980.324, 956.584 975.500 C 954.533 971.564, 954.496 970.296, 954.226 895.750 L 953.951 820 943.309 820 L 932.667 820 936.395 823.250 M 1012 821.011 C 1012 821.908, 1016.491 838.180, 1020.621 852.250 C 1020.904 853.212, 1021.925 854, 1022.891 854 C 1024.492 854, 1024.325 852.512, 1021.009 837.250 C 1017.452 820.876, 1017.310 820.493, 1014.685 820.184 C 1013.152 820.003, 1012 820.358, 1012 821.011 M 1071 820.508 C 1071 820.788, 1072.791 821.733, 1074.981 822.609 C 1077.494 823.614, 1079.798 825.547, 1081.231 827.851 L 1083.500 831.500 1083.776 902.795 C 1084.026 967.518, 1083.898 974.412, 1082.391 977.589 C 1080.615 981.331, 1077.357 983.478, 1071.282 984.908 C 1068.768 985.501, 1076.382 985.792, 1094 985.778 C 1112.232 985.763, 1118.714 985.494, 1114.776 984.917 C 1105.534 983.563, 1100.133 979.748, 1097.778 972.910 C 1096.946 970.494, 1096.499 951.930, 1096.245 909.250 L 1095.886 849 1098.693 848.864 C 1101.051 848.749, 1101.140 848.658, 1099.250 848.294 C 1097.203 847.900, 1097.002 847.303, 1097.022 841.680 C 1097.062 830.460, 1101.884 824.017, 1111.416 822.447 C 1121.737 820.748, 1116.985 820.059, 1094.750 820.030 C 1081.688 820.014, 1071 820.229, 1071 820.508 M 776.164 822.919 C 783.153 825.154, 787.404 827.744, 792.198 832.687 C 800.289 841.031, 804.258 856.308, 802.170 871.075 C 800.085 885.815, 793.878 895.178, 782 901.497 C 774.576 905.446, 774.582 905.610, 782.068 903.388 C 794.883 899.583, 806.955 890.872, 812.482 881.441 C 816.313 874.903, 818.301 865.901, 817.478 858.811 C 816.529 850.635, 811.183 840.223, 805.202 834.904 C 799.775 830.078, 789.136 824.741, 780.540 822.532 C 772.341 820.425, 769.226 820.700, 776.164 822.919 M 538.656 825.910 C 521.445 831.598, 509.524 847.091, 504.776 869.942 C 503.075 878.128, 502.870 881.940, 503.350 896.500 C 504.429 929.239, 512.630 952.829, 528.408 968.580 C 536.424 976.581, 543.143 980.240, 553.241 982.100 C 571.839 985.527, 591.573 974.988, 601.210 956.484 C 614.423 931.110, 613.689 887.313, 599.568 858.571 C 591.719 842.596, 581.049 831.829, 568.225 826.944 C 560.001 823.812, 546.441 823.338, 538.656 825.910 M 420.985 828.954 C 423.781 831.102, 424.333 831.032, 423.417 828.643 C 423.070 827.739, 421.822 827.010, 420.643 827.022 C 418.569 827.044, 418.580 827.106, 420.985 828.954 M 736.123 827.933 C 726.986 830.278, 725.832 835.589, 726.222 873.500 L 726.500 900.500 739.500 900.322 C 750.358 900.173, 753.833 899.721, 760.590 897.579 C 773.974 893.336, 779.117 888.411, 782.536 876.565 C 785.044 867.879, 784.217 853.313, 780.799 845.942 C 777.621 839.090, 771.997 833.420, 765.293 830.309 C 761.151 828.387, 757.981 827.808, 749.793 827.479 C 744.132 827.252, 737.980 827.456, 736.123 827.933 M 870 827.918 C 870 828.423, 869.696 829.629, 869.324 830.597 C 868.710 832.197, 868.890 832.182, 871.293 830.429 C 874.470 828.112, 874.699 827, 872 827 C 870.900 827, 870 827.413, 870 827.918 M 1004.461 829.492 C 1007.781 832.205, 1008.487 832.110, 1007.524 829.075 C 1007.068 827.640, 1006.038 827.011, 1004.183 827.036 L 1001.500 827.072 1004.461 829.492 M 1074.621 831.500 C 1075.104 833.150, 1075.500 866.594, 1075.500 905.820 C 1075.500 962.346, 1075.750 976.555, 1076.705 974.320 C 1078.167 970.898, 1078.492 840.826, 1077.054 834.628 C 1076.560 832.498, 1075.612 830.248, 1074.949 829.628 C 1074.013 828.753, 1073.939 829.174, 1074.621 831.500 M 327.500 903.020 C 327.500 950.941, 327.833 974.566, 328.500 973.898 C 329.147 973.250, 329.500 948.497, 329.500 903.698 C 329.500 859.352, 329.141 833.897, 328.500 832.821 C 327.827 831.690, 327.500 854.648, 327.500 903.020 M 699.500 903.941 C 699.500 943.468, 699.831 975.289, 700.235 974.654 C 701.158 973.203, 701.105 836.118, 700.180 833.787 C 699.806 832.845, 699.500 864.414, 699.500 903.941 M 933.942 902 C 933.648 940.775, 933.060 973.625, 932.635 975 C 931.912 977.338, 931.948 977.370, 933.181 975.500 C 934.225 973.916, 934.559 961.632, 934.784 916.500 C 934.940 885.150, 934.935 853.200, 934.773 845.500 C 934.610 837.800, 934.237 863.225, 933.942 902 M 1215 835.535 C 1215 835.830, 1215.648 837.067, 1216.440 838.285 C 1217.927 840.574, 1260.335 948.127, 1264.599 960.425 C 1265.920 964.234, 1267 969.323, 1267 971.734 C 1267 974.402, 1267.391 975.876, 1268 975.500 C 1269.569 974.530, 1269.181 969.798, 1266.938 962.536 C 1264.050 953.184, 1219.516 840.717, 1217.458 837.576 C 1215.834 835.097, 1215 834.405, 1215 835.535 M 791.453 843.500 C 791.688 844.600, 792.395 847.487, 793.024 849.916 C 794.275 854.750, 794.582 873.525, 793.471 877.200 C 792.890 879.120, 793 879.285, 794.138 878.200 C 795.153 877.231, 795.500 873.538, 795.500 863.700 C 795.500 852.040, 795.239 849.975, 793.262 846 C 792.032 843.525, 791.217 842.400, 791.453 843.500 M 610.615 856.500 C 610.966 857.600, 612.357 861.596, 613.706 865.380 C 617.575 876.228, 620.097 891.161, 620.990 908.500 L 621.814 924.500 621.534 905.500 C 621.290 888.974, 620.927 885.263, 618.745 877 C 617.366 871.775, 614.829 864.575, 613.107 861 C 611.386 857.425, 610.264 855.400, 610.615 856.500 M 1203.369 886.755 C 1197.797 900.915, 1193.436 912.837, 1193.678 913.250 C 1194.237 914.202, 1235 914.245, 1235 913.294 C 1235 911.860, 1214.664 861, 1214.092 861.005 C 1213.767 861.008, 1208.941 872.595, 1203.369 886.755 M 410.642 873.750 C 409.831 878.658, 409.817 921.834, 410.625 925.875 C 410.969 927.594, 411.869 929, 412.625 929 C 413.761 929, 414 923.864, 414 899.500 C 414 875.197, 413.759 870, 412.631 870 C 411.826 870, 411.006 871.544, 410.642 873.750 M 473.449 893.696 C 472.580 902.971, 473.451 916.146, 475.518 925 C 477.130 931.907, 480.720 941.838, 482.205 943.499 C 482.696 944.048, 481.976 941.517, 480.605 937.874 C 476.647 927.360, 474.786 915.122, 474.807 899.757 C 474.817 892.191, 474.678 886, 474.498 886 C 474.318 886, 473.846 889.463, 473.449 893.696 M 400.680 898.119 C 398.921 899.143, 398.921 899.223, 400.680 900.557 C 403.303 902.545, 404 902.323, 404 899.500 C 404 896.763, 403.424 896.523, 400.680 898.119 M 760.744 906.729 L 756.987 907.121 766.140 917.311 C 771.174 922.915, 782.133 936.050, 790.493 946.500 C 808.173 968.598, 816.713 977.030, 826.752 982.302 C 832.923 985.543, 834.768 986.060, 839.246 985.802 L 844.500 985.500 839.769 983.170 C 831.395 979.046, 821.709 968.905, 790.002 931.062 C 775.453 913.699, 768.045 905.972, 766.135 906.168 C 765.236 906.261, 762.810 906.513, 760.744 906.729 M 757 917.500 C 758.292 918.875, 759.574 920, 759.849 920 C 760.124 920, 759.292 918.875, 758 917.500 C 756.708 916.125, 755.426 915, 755.151 915 C 754.876 915, 755.708 916.125, 757 917.500 M 1197.812 920.748 C 1206.233 920.916, 1219.733 920.915, 1227.812 920.748 C 1235.890 920.580, 1229 920.443, 1212.500 920.443 C 1196 920.444, 1189.390 920.581, 1197.812 920.748 M 763.368 925 C 764.877 926.925, 772.041 936.125, 779.289 945.445 C 792.888 962.931, 802.522 974, 804.145 974 C 804.656 974, 801.540 969.837, 797.220 964.750 C 792.900 959.663, 784.161 948.975, 777.800 941 C 771.439 933.025, 764.972 925.375, 763.430 924 L 760.625 921.500 763.368 925 M 1169.550 964.091 C 1168.298 970.397, 1170.407 975.311, 1176.771 980.922 C 1181.644 985.217, 1183.097 985.967, 1186.500 985.942 L 1190.500 985.912 1186.759 984.577 C 1178.323 981.566, 1173.391 975.636, 1171.430 966.146 L 1170.263 960.500 1169.550 964.091 M 1161.715 976.762 C 1159.320 979.409, 1159.554 980, 1163 980 C 1166.293 980, 1166.658 979.282, 1164.715 976.625 C 1163.495 974.956, 1163.343 974.963, 1161.715 976.762 M 580.500 985 C 578.572 985.829, 578.579 985.862, 580.691 985.930 C 581.896 985.968, 583.160 985.550, 583.500 985 C 584.231 983.817, 583.252 983.817, 580.500 985 M 908.269 985.693 C 909.242 985.947, 910.592 985.930, 911.269 985.656 C 911.946 985.382, 911.150 985.175, 909.500 985.195 C 907.850 985.215, 907.296 985.439, 908.269 985.693 M 1245.813 985.683 C 1246.534 985.972, 1247.397 985.936, 1247.729 985.604 C 1248.061 985.272, 1247.471 985.036, 1246.417 985.079 C 1245.252 985.127, 1245.015 985.364, 1245.813 985.683 M 697.121 1044.111 C 696.607 1045.425, 690.697 1059.100, 683.987 1074.500 C 677.278 1089.900, 671.548 1103.102, 671.254 1103.838 C 670.882 1104.766, 671.407 1105.072, 672.967 1104.838 C 674.742 1104.571, 675.888 1102.818, 678.414 1096.500 L 681.613 1088.500 695.683 1088.223 L 709.754 1087.947 713.025 1096.061 C 714.824 1100.525, 716.857 1104.392, 717.543 1104.655 C 718.229 1104.918, 720.378 1104.991, 722.319 1104.817 L 725.849 1104.500 712.365 1073.524 C 704.948 1056.486, 698.695 1042.362, 698.468 1042.135 C 698.241 1041.908, 697.635 1042.798, 697.121 1044.111 M 385.001 1044.123 C 379.492 1046.320, 375 1052.553, 375 1058 C 375 1064.287, 380.520 1070.696, 390.127 1075.564 C 392.906 1076.973, 397.165 1079.954, 399.590 1082.190 C 403.588 1085.875, 404 1086.689, 404 1090.905 C 404 1093.500, 403.310 1096.540, 402.439 1097.783 C 398.665 1103.171, 390.093 1104.456, 380.475 1101.076 C 375.212 1099.226, 375 1099.222, 375 1100.976 C 375 1102.778, 376.761 1103.405, 387.854 1105.555 C 392.982 1106.548, 401.525 1105.121, 405.176 1102.661 C 410.776 1098.886, 413.241 1094.281, 412.774 1088.460 C 412.215 1081.477, 409.218 1077.873, 398.500 1071.294 C 387.618 1064.614, 384.392 1061.717, 382.944 1057.329 C 382.034 1054.574, 382.162 1053.332, 383.670 1050.244 C 385.165 1047.186, 386.112 1046.441, 388.840 1046.180 C 391.613 1045.914, 401.074 1048.172, 407.467 1050.626 C 408.630 1051.072, 409 1050.505, 409 1048.279 C 409 1045.571, 408.606 1045.253, 403.924 1044.172 C 397.842 1042.768, 388.460 1042.744, 385.001 1044.123 M 469.500 1044.340 C 463.262 1046.405, 459.802 1048.517, 455.860 1052.668 C 451.082 1057.698, 449.365 1061.290, 447.878 1069.358 C 445.706 1081.147, 448.826 1091.820, 456.518 1098.910 C 464.900 1106.636, 477.597 1107.831, 489.689 1102.030 C 496.668 1098.683, 501.108 1094.231, 504.179 1087.500 C 506.075 1083.345, 506.458 1080.810, 506.442 1072.500 C 506.421 1061.322, 505.293 1057.681, 499.970 1051.618 C 495.051 1046.017, 489.800 1043.725, 481 1043.342 C 476.560 1043.149, 471.868 1043.556, 469.500 1044.340 M 817.184 1073.377 C 809.933 1090.085, 804 1104.035, 804 1104.377 C 804 1104.720, 804.830 1105, 805.844 1105 C 807.224 1105, 808.545 1102.862, 811.094 1096.507 L 814.500 1088.014 828.517 1088.007 L 842.534 1088 845.942 1096.500 L 849.349 1105 854.112 1105 L 858.875 1105 856.069 1098.750 C 854.526 1095.313, 848.424 1081.362, 842.510 1067.750 C 836.596 1054.138, 831.445 1043, 831.062 1043 C 830.680 1043, 824.435 1056.670, 817.184 1073.377 M 908.756 1044.755 C 902.947 1048.356, 900.886 1059.338, 904.286 1068.571 L 905.785 1072.643 901.643 1073.751 C 889.571 1076.982, 883.793 1087.490, 888.849 1097.016 C 891.684 1102.356, 898.050 1105.490, 906 1105.458 C 912.951 1105.431, 917.401 1103.733, 922.143 1099.301 L 924.787 1096.830 928.643 1099.376 C 934.219 1103.057, 944.259 1105.476, 947.221 1103.852 C 949.404 1102.655, 949.324 1102.572, 945.326 1101.867 C 940.659 1101.043, 936.030 1098.908, 931.390 1095.438 L 928.280 1093.112 931.458 1086.796 C 933.206 1083.323, 935.145 1079.023, 935.766 1077.241 C 936.695 1074.576, 937.419 1074, 939.841 1074 C 941.604 1074, 943.030 1073.365, 943.393 1072.418 C 944.301 1070.053, 944.193 1069.922, 941.750 1070.426 C 940.513 1070.682, 937.362 1071.168, 934.750 1071.507 C 932.138 1071.845, 930 1072.545, 930 1073.061 C 930 1073.578, 930.675 1074, 931.500 1074 C 932.325 1074, 933 1074.215, 933 1074.477 C 933 1075.802, 927.761 1088.634, 926.867 1089.499 C 925.369 1090.947, 919.021 1083.491, 914.760 1075.277 C 908.736 1063.665, 907.433 1052.494, 911.570 1047.922 C 913.693 1045.577, 918.661 1045.414, 923.709 1047.523 C 926.622 1048.740, 927.516 1048.790, 928.161 1047.773 C 930.147 1044.640, 926.938 1043.241, 917.500 1043.126 C 913.486 1043.077, 910.592 1043.616, 908.756 1044.755 M 1225.271 1044.964 C 1219.929 1047.388, 1217.009 1052, 1217.004 1058.018 C 1216.998 1064.890, 1220.297 1068.881, 1231.372 1075.399 C 1242.359 1081.865, 1246 1085.656, 1246 1090.626 C 1246 1101.263, 1234.924 1106.004, 1221.761 1101.001 C 1215.476 1098.612, 1216 1098.655, 1216 1100.525 C 1216 1102.434, 1219.262 1103.694, 1227.903 1105.121 C 1240.598 1107.218, 1250.209 1103.257, 1253.530 1094.560 C 1256.984 1085.516, 1253.308 1079.323, 1239.465 1070.864 C 1228.931 1064.426, 1224.997 1060.400, 1224.326 1055.371 C 1223.923 1052.349, 1224.306 1050.871, 1226.070 1048.632 C 1228.180 1045.955, 1228.674 1045.804, 1233.466 1046.367 C 1236.291 1046.699, 1241.127 1047.839, 1244.213 1048.901 L 1249.825 1050.832 1250.461 1048.298 C 1250.811 1046.904, 1250.963 1045.645, 1250.799 1045.500 C 1250.634 1045.355, 1248.115 1044.733, 1245.201 1044.118 C 1237.382 1042.468, 1230.086 1042.778, 1225.271 1044.964 M 1276.271 1044.964 C 1270.980 1047.365, 1268.009 1052.009, 1268.004 1057.882 C 1267.997 1065.497, 1270.765 1068.552, 1285.693 1077.403 C 1293.594 1082.088, 1297 1086.072, 1297 1090.626 C 1297 1101.263, 1285.924 1106.004, 1272.761 1101.001 C 1266.476 1098.612, 1267 1098.655, 1267 1100.525 C 1267 1102.434, 1270.262 1103.694, 1278.903 1105.121 C 1291.598 1107.218, 1301.209 1103.257, 1304.530 1094.560 C 1307.984 1085.516, 1304.308 1079.323, 1290.465 1070.864 C 1279.931 1064.426, 1275.997 1060.400, 1275.326 1055.371 C 1274.923 1052.349, 1275.306 1050.871, 1277.070 1048.632 C 1279.180 1045.955, 1279.674 1045.804, 1284.466 1046.367 C 1287.291 1046.699, 1292.127 1047.839, 1295.213 1048.901 L 1300.825 1050.832 1301.461 1048.298 C 1301.811 1046.904, 1301.963 1045.645, 1301.799 1045.500 C 1301.634 1045.355, 1299.115 1044.733, 1296.201 1044.118 C 1288.382 1042.468, 1281.086 1042.778, 1276.271 1044.964 M 307 1074.500 L 307 1105 311.500 1105 L 316 1105 316 1089.500 L 316 1074 325.500 1074 C 333.278 1074, 335 1073.728, 335 1072.500 C 335 1071.272, 333.278 1071, 325.500 1071 L 316 1071 316 1059.519 L 316 1048.038 318.610 1047.383 C 321.256 1046.719, 332.398 1047.372, 339.250 1048.593 C 342.802 1049.226, 343 1049.123, 343 1046.631 L 343 1044 325 1044 L 307 1044 307 1074.500 M 352 1074.500 L 352 1105 355.500 1105 L 359 1105 359 1074.500 L 359 1044 355.500 1044 L 352 1044 352 1074.500 M 427 1074.500 L 427 1105 431 1105 L 435 1105 435 1074.500 L 435 1044 431 1044 L 427 1044 427 1074.500 M 512 1046.866 L 512 1049.732 518.142 1048.313 C 521.520 1047.533, 525.682 1047.031, 527.392 1047.197 L 530.500 1047.500 530.765 1076.250 L 531.031 1105 535 1105 L 538.969 1105 539.235 1076.250 L 539.500 1047.500 542.608 1047.197 C 544.318 1047.031, 548.480 1047.533, 551.858 1048.313 L 558 1049.732 558 1046.866 L 558 1044 535 1044 L 512 1044 512 1046.866 M 568 1074.500 L 568 1105 585.887 1105 L 603.773 1105 604.211 1102.016 C 604.637 1099.110, 604.556 1099.045, 601.074 1099.518 C 596.620 1100.123, 578.447 1102, 577.039 1102 C 576.370 1102, 576 1097.021, 576 1088 L 576 1074 586.500 1074 C 595.167 1074, 597 1073.738, 597 1072.500 C 597 1071.262, 595.167 1071, 586.500 1071 L 576 1071 576 1059.545 L 576 1048.091 579.615 1047.412 C 581.604 1047.039, 586.441 1047.083, 590.365 1047.510 C 602.661 1048.847, 603.461 1048.772, 603.820 1046.250 L 604.139 1044 586.070 1044 L 568 1044 568 1074.500 M 620 1074.500 L 620 1105 624 1105 L 628 1105 628 1090 L 628 1075 631.750 1075.047 C 635.443 1075.094, 635.661 1075.327, 646.049 1090.297 L 656.599 1105.500 661.049 1105.159 C 663.497 1104.971, 665.666 1104.655, 665.869 1104.457 C 666.071 1104.258, 661.009 1097.779, 654.619 1090.058 C 648.228 1082.337, 643 1075.659, 643 1075.218 C 643 1074.776, 645.084 1073.857, 647.631 1073.176 C 660.179 1069.820, 664.024 1054.976, 654.082 1048.276 C 649.003 1044.854, 644.600 1044.012, 631.750 1044.006 L 620 1044 620 1074.500 M 736 1074.404 L 736 1105 740 1105 L 744 1105 744 1091 L 744 1077 751.318 1077 C 765.208 1077, 773.945 1072.143, 775.562 1063.521 C 776.998 1055.869, 774.380 1050.301, 767.684 1046.762 C 764.089 1044.863, 761.563 1044.499, 749.750 1044.180 L 736 1043.808 736 1074.404 M 786 1074.500 L 786 1105 790 1105 L 794 1105 794 1074.500 L 794 1044 790 1044 L 786 1044 786 1074.500 M 986 1074.500 L 986 1105 990 1105 L 994 1105 994 1089.500 L 994 1074 1003.500 1074 C 1011.278 1074, 1013 1073.728, 1013 1072.500 C 1013 1071.272, 1011.278 1071, 1003.500 1071 L 994 1071 994 1059.545 L 994 1048.091 997.619 1047.412 C 1001.117 1046.755, 1009.507 1047.268, 1017.250 1048.611 C 1020.798 1049.227, 1021 1049.120, 1021 1046.631 L 1021 1044 1003.500 1044 L 986 1044 986 1074.500 M 1030 1074.500 L 1030 1105 1034 1105 L 1038 1105 1038 1074.500 L 1038 1044 1034 1044 L 1030 1044 1030 1074.500 M 1048 1046.905 L 1048 1049.810 1053.591 1048.350 C 1056.666 1047.547, 1060.829 1047.027, 1062.841 1047.195 L 1066.500 1047.500 1066.765 1076.250 L 1067.031 1105 1071 1105 L 1074.969 1105 1075.235 1076.250 L 1075.500 1047.500 1078.506 1047.205 C 1080.160 1047.042, 1084.323 1047.565, 1087.756 1048.366 L 1094 1049.823 1094 1046.911 L 1094 1044 1071 1044 L 1048 1044 1048 1046.905 M 1104 1074.500 C 1104 1100.944, 1104.199 1105, 1105.500 1105 C 1106.793 1105, 1107 1101.556, 1107 1080 C 1107 1066.250, 1107.338 1055.021, 1107.750 1055.047 C 1108.327 1055.083, 1129.864 1081.939, 1147.228 1104.277 C 1148.875 1106.397, 1148.957 1105.052, 1148.978 1075.250 C 1148.997 1048.129, 1148.802 1044, 1147.500 1044 C 1146.212 1044, 1146 1047.111, 1146 1066 C 1146 1078.100, 1145.662 1087.980, 1145.250 1087.955 C 1144.838 1087.931, 1136.850 1078.051, 1127.500 1066 C 1111.623 1045.537, 1110.285 1044.087, 1107.250 1044.045 L 1104 1044 1104 1074.500 M 1167 1074.523 L 1167 1105.046 1184.750 1104.773 L 1202.500 1104.500 1202.826 1101.654 C 1203.127 1099.019, 1202.941 1098.848, 1200.326 1099.343 C 1198.772 1099.637, 1194.350 1100.149, 1190.500 1100.481 C 1186.650 1100.812, 1181.588 1101.341, 1179.250 1101.655 L 1175 1102.227 1175 1088.114 L 1175 1074 1185 1074 C 1193.222 1074, 1195 1073.733, 1195 1072.500 C 1195 1071.267, 1193.222 1071, 1185 1071 L 1175 1071 1175 1059.545 L 1175 1048.091 1178.619 1047.412 C 1182.096 1046.759, 1190.516 1047.268, 1198.113 1048.589 C 1201.423 1049.165, 1201.767 1048.999, 1202.224 1046.609 L 1202.723 1044 1184.861 1044 L 1167 1044 1167 1074.523 M 468.447 1049.250 C 459.411 1055.395, 454.791 1068.239, 456.853 1081.484 C 459.010 1095.338, 464.766 1102.066, 475.100 1102.814 C 482.340 1103.337, 485.884 1101.978, 490.447 1096.927 C 498.281 1088.255, 500.299 1069.263, 494.620 1057.655 C 491.887 1052.070, 488.584 1049.063, 483.101 1047.172 C 477.402 1045.207, 473.599 1045.746, 468.447 1049.250 M 629.750 1047.689 C 628.202 1048.094, 628 1049.579, 628 1060.573 L 628 1073 634.032 1073 C 644.479 1073, 649.867 1069.356, 650.730 1061.706 C 651.300 1056.650, 649.452 1052.287, 645.385 1049.088 C 643.352 1047.489, 641.416 1047.027, 637.115 1047.116 C 634.027 1047.180, 630.712 1047.438, 629.750 1047.689 M 745.750 1047.689 C 744.193 1048.096, 744 1049.627, 744 1061.573 L 744 1075 750.750 1074.996 C 758.783 1074.992, 762.839 1072.967, 765.330 1067.717 C 768.639 1060.743, 766.483 1051.335, 760.915 1048.456 C 758.281 1047.094, 749.691 1046.660, 745.750 1047.689 M 689.265 1069.750 L 683.269 1084.500 695.269 1084.782 C 701.869 1084.937, 707.450 1084.883, 707.671 1084.662 C 708.222 1084.112, 696.654 1055.016, 695.880 1055.007 C 695.540 1055.003, 692.563 1061.638, 689.265 1069.750 M 827.353 1056.583 C 826.961 1057.637, 824.247 1064.294, 821.320 1071.375 C 818.394 1078.457, 816 1084.419, 816 1084.625 C 816 1084.831, 821.673 1085, 828.607 1085 C 839.288 1085, 841.128 1084.775, 840.650 1083.530 C 837.226 1074.608, 829.515 1056.296, 828.881 1055.583 C 828.414 1055.057, 827.761 1055.484, 827.353 1056.583 M 904 1076.121 C 895.304 1079.578, 891.403 1091.176, 896.859 1097.352 C 902.378 1103.600, 914.050 1103.538, 921.252 1097.222 C 922.894 1095.783, 922.667 1095.331, 917.682 1090.093 C 914.755 1087.017, 911.111 1082.362, 909.585 1079.750 C 908.059 1077.138, 906.740 1075.029, 906.655 1075.063 C 906.570 1075.098, 905.375 1075.574, 904 1076.121 M 609.226 1194.574 C 610.176 1195.568, 611.227 1196.107, 611.562 1195.771 C 611.897 1195.436, 611.120 1194.623, 609.836 1193.964 C 607.603 1192.819, 607.576 1192.846, 609.226 1194.574 M 1297 1992 C 1297 1992.550, 1297.450 1993, 1298 1993 C 1298.550 1993, 1299 1992.550, 1299 1992 C 1299 1991.450, 1298.550 1991, 1298 1991 C 1297.450 1991, 1297 1991.450, 1297 1992" stroke="none" fill="black" fill-rule="evenodd"/>
</svg>